# xmcd
#
# Track frame offsets:
#	150
#	17139
#	29303
#	45831
#	69760
#	84224
#	101781
#	126061
#	145539
#	159130
#	176460
#	189869
#	217996
#	231746
#	255774
#
# Disc length: 3723 seconds
#
# Revision: 1
# Processed by: cddbd v1.4PL0 Copyright (c) Steve Scherf et al.
# Submitted via: audiograbber 1.81.02
#
DISCID=ab0e890f
DTITLE=Jason Boland - Live and Lit at Billy Bobs
DYEAR=2002
DGENRE=Country
TTITLE0=Drinkin Song
TTITLE1=Tennessee Whiskey
TTITLE2=Shot Full of Holes
TTITLE3=Proud Souls
TTITLE4=Pearl Snaps
TTITLE5=Mexico or Crazy
TTITLE6=Somewhere Down In Texas
TTITLE7=Telephone Romeo
TTITLE8=When Im Stoned
TTITLE9=Falling With Style
TTITLE10=Ponies
TTITLE11=Mary
TTITLE12=Truckstop Diaries
TTITLE13=Song For You
TTITLE14=Big Shot Rich Man
EXTD=
EXTT0=
EXTT1=
EXTT2=
EXTT3=
EXTT4=
EXTT5=
EXTT6=
EXTT7=
EXTT8=
EXTT9=
EXTT10=
EXTT11=
EXTT12=
EXTT13=
EXTT14=
PLAYORDER=
